<svg id="Layer_1" xmlns="http://www.w3.org/2000/svg" viewBox="0 0 130.32 36"><path d="M32.19,28.77c.94,0,1.71-.76,1.71-1.71,0,0,0,0,0,0h0s0-21.74,0-21.74c0-.94-.76-1.71-1.71-1.71-.94,0-1.71.76-1.71,1.71v21.74h0s0,0,0,0c0,.94.76,1.71,1.71,1.71Z" fill="#005f6a"/><path d="M33.4,28.27c.67-.67.67-1.75,0-2.42l-3.62-3.62c-.67-.67-1.75-.67-2.42,0s-.67,1.75,0,2.42l3.62,3.62c.67.67,1.75.67,2.42,0Z" fill="#6fcf97"/><path d="M14.07,7.23c-.94,0-1.71.76-1.71,1.71,0,0,0,0,0,0h0s0,21.74,0,21.74c0,.94.76,1.71,1.71,1.71.94,0,1.71-.76,1.71-1.71V8.94h0s0,0,0,0c0-.94-.76-1.71-1.71-1.71Z" fill="#005f6a"/><path d="M12.86,7.73c-.67.67-.67,1.75,0,2.42l3.62,3.62c.67.67,1.75.67,2.42,0s.67-1.75,0-2.42l-3.62-3.62c-.67-.67-1.75-.67-2.42,0Z" fill="#6fcf97"/><path d="M21.32,18.6l12.08-12.08c.67-.67.67-1.75,0-2.42s-1.75-.67-2.42,0l-12.08,12.08c-.67.67-.67,1.75,0,2.42s1.75.67,2.42,0Z" fill="#4bb7d8"/><path d="M24.94,17.4l-12.08,12.08c-.67.67-.67,1.75,0,2.42s1.75.67,2.42,0l12.08-12.08c.67-.67.67-1.75,0-2.42s-1.75-.67-2.42,0Z" fill="#4bb7d8"/><path d="M44.77,13.76v10.7h-1.23v-10.7h1.23Z"/><path d="M49.87,13.76l7.4,9.23-.07-3.27v-5.96h1.17v10.7h-1.37l-7.4-9.3.11,3.78v5.51h-1.17v-10.7h1.32Z"/><path d="M61.75,13.76h7.82v1.05h-3.29v9.64h-1.23v-9.64h-3.29v-1.05Z"/><path d="M72.94,13.76h6.7v1.05h-5.46v3.54h4.92v1.05h-4.92v3.98h5.71v1.07h-6.94v-10.7Z"/><path d="M92.43,18.87v4.52c-1.22.89-2.65,1.27-4.34,1.27-2.93,0-5.5-1.96-5.5-5.56,0-3.31,2.55-5.56,5.68-5.56,1.53,0,2.85.36,3.95,1.09l-.53.97c-1.09-.74-2.24-1-3.42-1-2.7,0-4.44,1.91-4.44,4.51,0,2.75,1.97,4.49,4.43,4.49,1.22,0,2.14-.25,3.01-.76v-2.95h-2.88v-1.02h4.05Z"/><path d="M100.33,13.76c2.11,0,3.64,1.12,3.64,2.96,0,1.19-.84,2.37-2.48,2.8l3.24,4.94h-1.5l-3-4.72h-2.86v4.72h-1.23v-10.7h4.2ZM97.37,18.66h2.73c1.53,0,2.63-.66,2.63-1.94s-.97-1.91-2.65-1.91h-2.72v3.85Z"/><path d="M113.35,13.76l4.61,10.7h-1.3l-1.53-3.6h-5.08l-1.5,3.6h-1.27l4.62-10.7h1.45ZM110.47,19.83h4.23l-1.99-4.8h-.23l-2.01,4.8Z"/></svg>